<svg xmlns="http://www.w3.org/2000/svg" width="64" height="64" viewBox="0 0 16.933 16.933">
    <style>
      path {
        fill: black;
      }
      @media (prefers-color-scheme: dark) {
        path {
          fill: white;
        }
      }
    </style>
    <path d="M9.463 2.77a.498.498 0 0 0-.498.499.498.498 0 0 0 .498.498.498.498 0 0 0 .498-.498.498.498 0 0 0-.498-.498zm3.905.568a2.714 2.714 0 0 0-2.46 1.276c-.254.402-.753.57-1.206.421a3.582 3.582 0 0 0-3.94 1.186 1.701 1.701 0 0 1-1.612.609 3.474 3.474 0 0 0-.823-.039 3.583 3.583 0 0 0 .26 7.159 3.58 3.58 0 0 0 2.22-.771 1.599 1.599 0 0 1 2.068.065c.68.609 1.593.965 2.59.913a3.6 3.6 0 0 0 3.363-4.055 1.76 1.76 0 0 1 .817-1.737 2.708 2.708 0 0 0 1.282-2.545 2.726 2.726 0 0 0-2.56-2.482zm-9.135.928a.747.747 0 0 0-.747.747.747.747 0 0 0 .747.747.747.747 0 0 0 .747-.747.747.747 0 0 0-.747-.747zm11.704 4.482a.996.996 0 0 0-.996.996.996.996 0 0 0 .996.996.996.996 0 0 0 .996-.996.996.996 0 0 0-.996-.996z" style="fill:#fff;fill-opacity:1"/>
</svg>
