<svg xmlns="http://www.w3.org/2000/svg" xmlns:xlink="http://www.w3.org/1999/xlink" width="1200" height="800"><defs><linearGradient id="a"><stop offset="0" style="stop-color:#c061cb;stop-opacity:1"/><stop offset="1" style="stop-color:#62a0ea;stop-opacity:1"/></linearGradient><linearGradient xlink:href="#a" id="c" x1="0" x2="1200" y1="0" y2="800" gradientUnits="userSpaceOnUse"/><linearGradient id="b"><stop offset="0" style="stop-color:#fff;stop-opacity:.49494579"/><stop offset="1" style="stop-color:#62a0ea;stop-opacity:0"/></linearGradient><radialGradient xlink:href="#b" id="d" cx="800" cy="800" r="400" fx="800" fy="800" gradientUnits="userSpaceOnUse"/></defs><path d="M0 0h1200v800H0z" style="fill:url(#c);fill-opacity:1;stroke-width:12;paint-order:stroke fill markers"/><g style="fill:#fff;fill-opacity:1" transform="translate(794.627 251.165) scale(9.76921)"><circle cx="-28.623" cy="8.136" r="1.535" style="fill:#fff;fill-opacity:1;stroke:none;stroke-width:12.1647;stroke-linecap:round;stroke-linejoin:round;paint-order:markers stroke fill"/><circle cx="-17.875" cy="4.553" r="1.024" style="fill:#fff;fill-opacity:1;stroke:none;stroke-width:13.5925;stroke-linecap:round;stroke-linejoin:round;paint-order:markers stroke fill"/><circle cx="-4.568" cy="17.86" r="2.047" style="fill:#fff;fill-opacity:1;stroke:none;stroke-width:17.2334;stroke-linecap:round;stroke-linejoin:round;paint-order:markers stroke fill"/><path d="M-4.589 9.794c-.226-2.756-2.503-4.953-5.259-5.1a5.579 5.579 0 0 0-5.06 2.623c-.519.826-1.544 1.172-2.476.866a7.361 7.361 0 0 0-8.095 2.437c-.786.998-2.065 1.45-3.316 1.251a7.14 7.14 0 0 0-1.691-.08c-3.715.253-6.671 3.302-6.83 7.017-.187 4.221 3.182 7.696 7.362 7.696a7.36 7.36 0 0 0 4.567-1.584 3.286 3.286 0 0 1 4.248.133 7.375 7.375 0 0 0 5.326 1.878c3.768-.2 6.817-3.29 6.964-7.058.013-.439 0-.852-.054-1.278a3.614 3.614 0 0 1 1.678-3.568 5.566 5.566 0 0 0 2.636-5.233z" style="fill:#fff;fill-opacity:1;fill-rule:nonzero;stroke:none;stroke-width:.133151"/></g><path d="M0 0h1200v800H0z" style="fill:url(#d);fill-opacity:1;stroke-width:9.79796;paint-order:stroke fill markers"/></svg>